<?xml version="1.0" standalone="no"?><!DOCTYPE svg PUBLIC "-//W3C//DTD SVG 1.1//EN" "http://www.w3.org/Graphics/SVG/1.1/DTD/svg11.dtd"><svg t="1650142176461" class="icon" viewBox="0 0 1027 1024" version="1.1" xmlns="http://www.w3.org/2000/svg" p-id="1953" xmlns:xlink="http://www.w3.org/1999/xlink" width="200.5859375" height="200"><defs><style type="text/css"></style></defs><path d="M256 512c-10.24 0-17.066667-6.826667-17.066667-17.066667V307.2c0-3.413333 6.826667-218.453333 37.546667-252.586667 30.72-27.306667 170.666667-54.613333 252.586667-54.613333 88.746667 0 191.146667 30.72 218.453333 54.613333 30.72 34.133333 37.546667 197.973333 37.546667 218.453334v204.8c0 10.24-6.826667 17.066667-17.066667 17.066666s-17.066667-6.826667-17.066667-17.066666V273.066667c0-58.026667-13.653333-177.493333-30.72-191.146667C706.56 64.853333 614.4 34.133333 529.066667 34.133333c-88.746667 0-211.626667 30.72-225.28 47.786667C286.72 98.986667 273.066667 245.76 273.066667 307.2v187.733333c0 10.24-6.826667 17.066667-17.066667 17.066667z" fill="#2c2c2c" p-id="1954"></path><path d="M665.6 341.333333h-68.266667c-6.826667 0-13.653333-3.413333-17.066666-13.653333s0-13.653333 6.826666-20.48l102.4-68.266667c6.826667-6.826667 17.066667-3.413333 23.893334 3.413334s3.413333 17.066667-3.413334 23.893333l-27.306666 20.48v37.546667c0 10.24-6.826667 17.066667-17.066667 17.066666zM426.666667 341.333333h-68.266667c-10.24 0-17.066667-6.826667-17.066667-17.066666v-34.133334-3.413333l-27.306666-17.066667c-6.826667-3.413333-10.24-13.653333-3.413334-23.893333 3.413333-6.826667 13.653333-10.24 23.893334-3.413333l102.4 68.266666c6.826667 3.413333 6.826667 10.24 6.826666 17.066667s-10.24 13.653333-17.066666 13.653333zM563.2 170.666667h-102.4c-6.826667 0-13.653333-3.413333-17.066667-13.653334l-34.133333-119.466666c-3.413333-10.24 3.413333-17.066667 10.24-20.48 10.24-3.413333 17.066667 3.413333 20.48 10.24l34.133333 109.226666h75.093334L580.266667 30.72c3.413333-10.24 13.653333-13.653333 20.48-10.24 10.24 3.413333 13.653333 13.653333 10.24 20.48l-34.133334 119.466667c0 6.826667-6.826667 10.24-13.653333 10.24zM699.733333 580.266667h-68.266666c-3.413333 0-6.826667 0-6.826667-3.413334l-58.026667-30.72h-119.466666l-64.853334 30.72c0 3.413333-3.413333 3.413333-6.826666 3.413334H324.266667c-10.24 0-17.066667-6.826667-17.066667-17.066667s6.826667-17.066667 17.066667-17.066667h47.786666l64.853334-30.72c3.413333 0 3.413333-3.413333 6.826666-3.413333h129.706667c3.413333 0 6.826667 0 6.826667 3.413333l54.613333 30.72h64.853333c10.24 0 17.066667 6.826667 17.066667 17.066667s-6.826667 17.066667-17.066667 17.066667z" fill="#2c2c2c" p-id="1955"></path><path d="M655.36 1017.173333c-10.24 0-17.066667-6.826667-17.066667-17.066666 0-61.44-71.68-112.64-133.12-112.64S375.466667 935.253333 375.466667 1000.106667c0 10.24-6.826667 17.066667-17.066667 17.066666s-17.066667-10.24-17.066667-17.066666c0-81.92 88.746667-146.773333 167.253334-146.773334s167.253333 64.853333 167.253333 146.773334c-3.413333 6.826667-10.24 17.066667-20.48 17.066666z" fill="#2c2c2c" p-id="1956"></path><path d="M392.533333 563.2c-10.24 0-17.066667-6.826667-17.066666-17.066667 0-51.2-64.853333-68.266667-119.466667-68.266666-10.24 0-17.066667-6.826667-17.066667-17.066667s6.826667-17.066667 17.066667-17.066667c92.16 0 153.6 40.96 153.6 102.4 0 10.24-6.826667 17.066667-17.066667 17.066667z" fill="#2c2c2c" p-id="1957"></path><path d="M631.466667 580.266667c-10.24 0-17.066667-6.826667-17.066667-17.066667 0-71.68 54.613333-119.466667 136.533333-119.466667 10.24 0 17.066667 6.826667 17.066667 17.066667s-6.826667 17.066667-17.066667 17.066667c-61.44 0-102.4 34.133333-102.4 85.333333 0 10.24-6.826667 17.066667-17.066666 17.066667z" fill="#2c2c2c" p-id="1958"></path><path d="M392.533333 682.666667c-3.413333 0-10.24-3.413333-13.653333-6.826667l-136.533333-170.666667c-6.826667-6.826667-3.413333-17.066667 3.413333-23.893333 6.826667-6.826667 17.066667-3.413333 23.893333 3.413333l126.293334 157.013334 54.613333-40.96c3.413333-3.413333 6.826667-3.413333 10.24-3.413334h102.4c3.413333 0 6.826667 0 10.24 3.413334l54.613333 40.96 126.293334-174.08c6.826667-6.826667 17.066667-10.24 23.893333-3.413334 6.826667 6.826667 10.24 17.066667 3.413333 23.893334l-136.533333 187.733333c-3.413333 3.413333-6.826667 6.826667-10.24 6.826667-3.413333 0-10.24 0-13.653333-3.413334l-64.853334-47.786666h-92.16l-64.853333 47.786666c0 3.413333-3.413333 3.413333-6.826667 3.413334z" fill="#2c2c2c" p-id="1959"></path><path d="M1006.933333 1024H17.066667c-3.413333 0-10.24-3.413333-13.653334-6.826667s-3.413333-6.826667-3.413333-13.653333l34.133333-180.906667c6.826667-30.72 27.306667-58.026667 54.613334-71.68l54.613333-30.72c6.826667-3.413333 10.24-3.413333 13.653333-3.413333 3.413333 0 6.826667 3.413333 10.24 10.24l10.24 20.48 208.213334-95.573333c6.826667-3.413333 13.653333 0 20.48 3.413333l30.72 30.72h153.6l13.653333-23.893333c3.413333-6.826667 13.653333-10.24 20.48-6.826667l225.28 95.573333 10.24-20.48 10.24-10.24c3.413333 0 10.24 0 13.653333 3.413334l58.026667 40.96c27.306667 13.653333 44.373333 37.546667 51.2 71.68l34.133333 174.08c0 3.413333 0 10.24-3.413333 13.653333-6.826667-3.413333-13.653333 0-17.066667 0zM37.546667 989.866667h948.906666l-30.72-153.6c-3.413333-20.48-17.066667-37.546667-37.546666-47.786667l-40.96-30.72-6.826667 17.066667c-6.826667 10.24-17.066667 13.653333-23.893333 10.24l-225.28-95.573334-10.24 20.48c-3.413333 6.826667-10.24 10.24-13.653334 10.24h-170.666666c-3.413333 0-10.24-3.413333-13.653334-3.413333l-27.306666-27.306667L177.493333 785.066667c-6.826667 3.413333-17.066667 0-23.893333-6.826667l-10.24-17.066667L102.4 785.066667c-20.48 10.24-34.133333 27.306667-37.546667 47.786666L37.546667 989.866667z" fill="#2c2c2c" p-id="1960"></path><path d="M221.866667 1024c-6.826667 0-13.653333-6.826667-17.066667-13.653333l-51.2-238.933334c-3.413333-10.24 3.413333-17.066667 13.653333-20.48 10.24-3.413333 17.066667 3.413333 20.48 13.653334l51.2 238.933333c0 10.24-3.413333 17.066667-13.653333 20.48h-3.413333z" fill="#2c2c2c" p-id="1961"></path><path d="M785.066667 1024h-3.413334c-10.24-3.413333-13.653333-13.653333-10.24-20.48l68.266667-238.933333c3.413333-10.24 13.653333-13.653333 20.48-10.24 10.24 3.413333 13.653333 13.653333 10.24 20.48l-68.266667 238.933333c-3.413333 6.826667-10.24 10.24-17.066666 10.24z" fill="#2c2c2c" p-id="1962"></path></svg>